# xmcd
#
# Track frame offsets:
#	150
#	7646
#	20796
#	42029
#	53125
#	63747
#	77111
#	88033
#	104850
#	120047
#
# Disc length: 1784 seconds
#
# Revision: 0
# Processed by: cddbd v1.5.2PL0 Copyright (c) Steve Scherf et al.
# Submitted via: dBpowerAMP V4.0
#
DISCID=7606f60a
DTITLE=D.L. Byron - This Day And Age
DYEAR=1980
DGENRE=Rock
TTITLE0=Listen To the Heartbeat
TTITLE1=21st Century Man
TTITLE2=Big Boys
TTITLE3=Get With It
TTITLE4=Love In Motion
TTITLE5=No Romance, No Weekend, No Love
TTITLE6=Am I Falling In Love Again
TTITLE7=Lorryane
TTITLE8=Today
TTITLE9=Backstage Girl
EXTD=
EXTT0=
EXTT1=
EXTT2=
EXTT3=
EXTT4=
EXTT5=
EXTT6=
EXTT7=
EXTT8=
EXTT9=
PLAYORDER=
